<svg width="28" height="28" viewBox="0 0 28 28" fill="none" xmlns="http://www.w3.org/2000/svg">
<path d="M12.6328 1.37266C10.6148 1.59141 8.59688 2.31875 6.93438 3.42344C6.37656 3.79531 6.28906 3.88828 6.28906 4.12891C6.28906 4.31484 6.5625 4.59375 6.74297 4.59375C6.81406 4.59375 7.15859 4.40781 7.50313 4.18359C8.94141 3.25391 10.4727 2.65781 12.1406 2.37891C12.8625 2.25859 14.4375 2.20938 15.1484 2.29141C18.0688 2.625 20.6445 3.88828 22.5695 5.92813C24.243 7.71094 25.3039 9.90938 25.6813 12.3867C25.8016 13.1961 25.8016 14.8039 25.6813 15.6133C25.3805 17.6094 24.6422 19.4141 23.4773 20.9891C23.1711 21.4047 23.1656 21.4047 23.1273 21.2516C23.0563 20.9945 22.925 20.8906 22.6625 20.8906C22.4766 20.8906 22.4055 20.918 22.318 21.0328C22.2141 21.1641 22.2031 21.2516 22.2031 22.0063C22.2086 22.5695 22.2305 22.8594 22.2742 22.9195C22.4109 23.1 22.575 23.1328 23.3789 23.1328C24.1555 23.1328 24.1828 23.1273 24.3086 22.9961C24.407 22.9031 24.4453 22.8047 24.4453 22.6461C24.4453 22.3727 24.2539 22.2031 23.9477 22.2031H23.7398L24.1227 21.7C25.4625 19.9445 26.3594 17.7352 26.6383 15.5039C26.7313 14.7273 26.7203 13.125 26.6109 12.332C26.4141 10.9102 26.0367 9.68516 25.4023 8.39453C24.7461 7.04922 23.9969 6.01016 22.9305 4.96563C22.2305 4.27656 21.7766 3.90469 20.9836 3.38516C19.4742 2.39531 17.7297 1.73359 15.8867 1.44922C15.1813 1.33984 13.3219 1.29609 12.6328 1.37266Z" fill="#3D3D3D"/>
<path d="M3.78829 4.92168C3.52579 5.03105 3.4711 5.44121 3.68985 5.65996C3.78282 5.7584 3.88126 5.79668 4.03985 5.79668H4.2586L3.83204 6.35449C0.435944 10.8771 0.441413 17.1115 3.84844 21.6561C4.34063 22.3123 5.34688 23.3568 5.99219 23.8764C7.75313 25.2928 9.78204 26.1732 12.1664 26.5615C13.0141 26.6982 15.0375 26.6982 15.9125 26.5615C17.2797 26.3428 18.6578 25.8998 19.8445 25.2928C20.55 24.9318 21.5727 24.2701 21.6547 24.117C21.8188 23.8053 21.5836 23.4061 21.2227 23.4061C21.168 23.4061 20.8453 23.592 20.5008 23.8162C17.5969 25.7357 14.0039 26.2607 10.6188 25.2545C6.75235 24.117 3.79923 21.1037 2.65079 17.1498C2.37735 16.1982 2.28438 15.5256 2.25704 14.3006C2.22423 12.9498 2.30079 12.217 2.5961 11.074C2.97891 9.57012 3.60235 8.26855 4.55391 6.97793L4.83282 6.60058L4.88204 6.75918C4.96954 7.02168 5.07891 7.10918 5.33048 7.10918C5.49454 7.10918 5.58751 7.07637 5.67501 6.9834C5.78985 6.86308 5.79532 6.80293 5.79532 6.00449C5.79532 4.83965 5.85001 4.8998 4.74532 4.8834C4.28594 4.87793 3.85391 4.89433 3.78829 4.92168Z" fill="#3D3D3D"/>
<path d="M12.4682 7.47222C11.1994 7.61441 10.3408 7.80035 9.59709 8.09019C8.73302 8.42379 8.53615 8.75738 9.00646 9.11285C9.47131 9.46832 10.7455 9.82379 12.0854 9.98238C13.644 10.1574 15.8971 10.0644 17.226 9.76363C17.9861 9.5941 18.7135 9.32613 18.9924 9.11285C19.4627 8.75738 19.2658 8.42379 18.4018 8.09019C17.2205 7.63082 16.2252 7.48316 14.2182 7.46675C13.3596 7.45582 12.5721 7.46129 12.4682 7.47222Z" fill="#3D3D3D"/>
<path d="M8.76094 11.1688L8.77734 12.4376L9.00703 12.6126C9.47734 12.9735 10.7461 13.329 12.1406 13.4876C13.1414 13.597 15.4547 13.5696 16.368 13.4274C17.5328 13.2524 18.6594 12.8915 19.0477 12.5743L19.25 12.4102V11.1524V9.90009L19.1297 9.97665C18.8945 10.1243 18.1836 10.3813 17.6094 10.5181C15.5258 11.0267 12.4906 11.0267 10.3906 10.5181C9.81641 10.3813 9.10547 10.1298 8.87031 9.97665L8.75 9.89462L8.76094 11.1688Z" fill="#3D3D3D"/>
<path d="M8.76094 14.6688L8.77734 15.9376L9.00703 16.1126C9.47734 16.4735 10.7461 16.829 12.1406 16.9876C13.1414 17.097 15.4547 17.0696 16.368 16.9274C17.5328 16.7524 18.6594 16.3915 19.0477 16.0743L19.25 15.9102V14.6524V13.4001L19.1297 13.4767C18.8945 13.6298 18.1836 13.8813 17.6094 14.0181C15.5094 14.5267 12.4742 14.5267 10.3906 14.0181C9.81094 13.8813 9.10547 13.6243 8.87031 13.4767L8.75 13.3946L8.76094 14.6688Z" fill="#3D3D3D"/>
<path d="M8.76094 18.1688L8.77734 19.4376L9.00703 19.6126C9.47734 19.9735 10.7461 20.329 12.1406 20.4876C13.1414 20.597 15.4547 20.5696 16.368 20.4274C17.5328 20.2524 18.6594 19.8915 19.0477 19.5743L19.25 19.4102V18.1524V16.9001L19.1297 16.9767C18.8945 17.1243 18.1836 17.3813 17.6094 17.5181C15.5258 18.0267 12.4906 18.0267 10.3906 17.5181C9.81641 17.3813 9.10547 17.1298 8.87031 16.9767L8.75 16.8946L8.76094 18.1688Z" fill="#3D3D3D"/>
</svg>
